<svg width="28" height="28" viewBox="0 0 28 28" fill="#A6A7AA" xmlns="http://www.w3.org/2000/svg">
<path fill-rule="evenodd" clip-rule="evenodd" d="M14 3.66669C14.2652 3.66669 14.5196 3.77204 14.7071 3.95958L19.3738 8.62625C19.7643 9.01677 19.7643 9.64994 19.3738 10.0405C18.9832 10.431 18.3501 10.431 17.9595 10.0405L15 7.0809V17.5C15 18.0523 14.5523 18.5 14 18.5C13.4477 18.5 13 18.0523 13 17.5V7.0809L10.0404 10.0405C9.6499 10.431 9.01674 10.431 8.62622 10.0405C8.23569 9.64994 8.23569 9.01677 8.62622 8.62625L13.2929 3.95958C13.4804 3.77204 13.7348 3.66669 14 3.66669ZM4.66666 16.5C5.21894 16.5 5.66666 16.9477 5.66666 17.5C5.66666 18.6321 5.6715 19.0522 5.73711 19.382C6.02643 20.8366 7.16346 21.9736 8.61799 22.2629C8.94783 22.3285 9.36788 22.3334 10.5 22.3334H17.5C18.6321 22.3334 19.0521 22.3285 19.382 22.2629C20.8365 21.9736 21.9735 20.8366 22.2629 19.382C22.3285 19.0522 22.3333 18.6321 22.3333 17.5C22.3333 16.9477 22.781 16.5 23.3333 16.5C23.8856 16.5 24.3333 16.9477 24.3333 17.5C24.3333 17.5413 24.3333 17.5819 24.3333 17.622C24.3335 18.589 24.3336 19.2232 24.2244 19.7722C23.7773 22.0201 22.0201 23.7773 19.7722 24.2245C19.2232 24.3337 18.589 24.3336 17.622 24.3334C17.5819 24.3334 17.5412 24.3334 17.5 24.3334H10.5C10.4587 24.3334 10.4181 24.3334 10.378 24.3334C9.41101 24.3336 8.77679 24.3337 8.22781 24.2245C5.9799 23.7773 4.22268 22.0201 3.77554 19.7722C3.66634 19.2232 3.66646 18.589 3.66664 17.622C3.66665 17.5819 3.66666 17.5413 3.66666 17.5C3.66666 16.9477 4.11437 16.5 4.66666 16.5Z" fill="#A6A7AA"/>
</svg>
