<svg width="28" height="28" viewBox="0 0 28 28" fill="#A6A7AA" xmlns="http://www.w3.org/2000/svg">
<path fill-rule="evenodd" clip-rule="evenodd" d="M14 3.33334C11.9968 3.33334 10.1881 3.43043 8.63105 3.56802C6.7098 3.73778 6.02767 3.81699 5.27562 4.26814C4.69892 4.6141 4.02928 5.34552 3.73542 5.95044C3.35517 6.73319 3.33334 7.54573 3.33334 9.78526V12.6182C3.33334 14.7675 3.34845 15.578 3.57306 16.1972C3.97728 17.3117 4.85501 18.1894 5.96945 18.5936C6.58868 18.8182 7.3992 18.8333 9.54848 18.8333C9.56786 18.8333 9.58776 18.8333 9.60815 18.8332C9.82436 18.8326 10.0944 18.8318 10.3514 18.8997C10.7737 19.0112 11.1479 19.2579 11.4167 19.6021C11.5804 19.8116 11.686 20.0601 11.7706 20.2591C11.7786 20.2779 11.7864 20.2962 11.794 20.314L11.9595 20.7002C12.4388 21.8185 12.7717 22.5929 13.0641 23.1341C13.3705 23.7014 13.5298 23.8061 13.5608 23.8212C13.8379 23.9567 14.1621 23.9567 14.4392 23.8212C14.4702 23.8061 14.6295 23.7014 14.936 23.1341C15.2283 22.5929 15.5612 21.8185 16.0405 20.7003L16.206 20.314C16.2137 20.2962 16.2215 20.2779 16.2294 20.2591C16.314 20.0601 16.4197 19.8116 16.5833 19.6021C16.8522 19.2579 17.2263 19.0112 17.6486 18.8997C17.9056 18.8318 18.1757 18.8326 18.3919 18.8332C18.4123 18.8333 18.4322 18.8333 18.4515 18.8333C20.6008 18.8333 21.4113 18.8182 22.0306 18.5936C23.145 18.1894 24.0228 17.3117 24.427 16.1972C24.6516 15.578 24.6667 14.7675 24.6667 12.6182V9.78526C24.6667 7.54573 24.6449 6.73319 24.2646 5.95044C23.9707 5.34552 23.3011 4.6141 22.7244 4.26814C21.9724 3.81699 21.2902 3.73778 19.369 3.56802C17.8119 3.43043 16.0033 3.33334 14 3.33334ZM8.45502 1.57578C10.0649 1.43353 11.9325 1.33334 14 1.33334C16.0676 1.33334 17.9352 1.43353 19.545 1.57578C19.5972 1.58039 19.6488 1.58493 19.6999 1.58943C21.4194 1.74084 22.5679 1.84197 23.7533 2.55307C24.6629 3.09874 25.6001 4.12243 26.0636 5.07652C26.6679 6.32048 26.6674 7.61976 26.6667 9.58197C26.6667 9.64896 26.6667 9.71671 26.6667 9.78526V12.6182C26.6667 12.6929 26.6667 12.7666 26.6667 12.8393C26.6673 14.6885 26.6676 15.8853 26.3071 16.8792C25.7008 18.5509 24.3842 19.8674 22.7125 20.4738C21.7186 20.8343 20.5218 20.8339 18.6726 20.8334C18.5999 20.8334 18.5263 20.8333 18.4515 20.8333C18.3015 20.8333 18.2239 20.8336 18.1675 20.8363C18.1654 20.8364 18.1634 20.8365 18.1616 20.8366C18.1608 20.8383 18.1599 20.8401 18.159 20.8419C18.1342 20.8927 18.1034 20.964 18.0443 21.1019L17.8584 21.5358C17.4044 22.595 17.0363 23.4539 16.6956 24.0847C16.3639 24.6986 15.9539 25.3069 15.3176 25.618C14.4862 26.0244 13.5138 26.0244 12.6824 25.618C12.0461 25.3069 11.6361 24.6986 11.3044 24.0847C10.9637 23.454 10.5956 22.5951 10.1417 21.5358L9.95569 21.1019C9.89661 20.964 9.86579 20.8928 9.84105 20.842C9.84015 20.8401 9.83927 20.8383 9.83844 20.8366C9.83658 20.8365 9.83461 20.8364 9.83253 20.8363C9.7761 20.8336 9.69848 20.8333 9.54848 20.8333C9.47376 20.8333 9.40008 20.8334 9.3274 20.8334C7.47817 20.8339 6.28141 20.8343 5.2875 20.4738C3.61584 19.8674 2.29924 18.5509 1.69291 16.8792C1.33241 15.8853 1.33276 14.6885 1.3333 12.8393C1.33332 12.7666 1.33334 12.6929 1.33334 12.6182V9.78526C1.33334 9.71671 1.33332 9.64895 1.3333 9.58197C1.33261 7.61976 1.33215 6.32048 1.93645 5.07652C2.39994 4.12243 3.33716 3.09874 4.24676 2.55307C5.43214 1.84197 6.58066 1.74084 8.3001 1.58943C8.35123 1.58493 8.40286 1.58039 8.45502 1.57578Z" fill="#A6A7AA"/>
</svg>
