<svg width="28" height="28" viewBox="0 0 28 28" fill="#A6A7AA" xmlns="http://www.w3.org/2000/svg">
<path d="M9.91663 11.6667C10.8831 11.6667 11.6666 10.8832 11.6666 9.91667C11.6666 8.95017 10.8831 8.16667 9.91663 8.16667C8.95013 8.16667 8.16663 8.95017 8.16663 9.91667C8.16663 10.8832 8.95013 11.6667 9.91663 11.6667Z" fill="#A6A7AA"/>
<path fill-rule="evenodd" clip-rule="evenodd" d="M11.5055 2.5H16.4945C17.8805 2.49999 18.9828 2.49999 19.8716 2.5738C20.7819 2.64939 21.5575 2.80755 22.2658 3.17552C23.3617 3.74477 24.2552 4.6383 24.8245 5.73415C25.1925 6.44253 25.3506 7.21811 25.4262 8.12839C25.5 9.0172 25.5 10.1195 25.5 11.5054V16.4982C25.5 16.8333 25.5 17.1518 25.4989 17.4547C25.5004 17.4874 25.5003 17.5201 25.4986 17.5528C25.4947 18.4581 25.4802 19.2219 25.4262 19.8716C25.3506 20.7819 25.1925 21.5575 24.8245 22.2658C24.2552 23.3617 23.3617 24.2552 22.2658 24.8245C21.5575 25.1925 20.7819 25.3506 19.8716 25.4262C18.9828 25.5 17.8805 25.5 16.4946 25.5H11.5055C10.1195 25.5 9.0172 25.5 8.12839 25.4262C7.21811 25.3506 6.44253 25.1925 5.73415 24.8245C4.6383 24.2552 3.74477 23.3617 3.17552 22.2658C2.80755 21.5575 2.64939 20.7819 2.5738 19.8716C2.49999 18.9828 2.49999 17.8805 2.5 16.4945V11.5055C2.49999 10.1195 2.49999 9.01721 2.5738 8.12839C2.64939 7.21811 2.80755 6.44253 3.17552 5.73415C3.74477 4.6383 4.6383 3.74477 5.73415 3.17552C6.44253 2.80755 7.21811 2.64939 8.12839 2.5738C9.01721 2.49999 10.1195 2.49999 11.5055 2.5ZM23.5 11.55V15.0119L21.4739 12.8983C20.6837 12.074 19.3649 12.0775 18.5791 12.906L12.8845 18.9096L10.8386 16.4359C10.0165 15.4419 8.48234 15.4746 7.70334 16.5028L4.67198 20.5037C4.62736 20.2771 4.59263 20.0154 4.56694 19.7061C4.5008 18.9097 4.5 17.8905 4.5 16.45V11.55C4.5 10.1095 4.5008 9.09025 4.56694 8.29391C4.63208 7.50955 4.75538 7.03142 4.95035 6.6561C5.32985 5.92553 5.92553 5.32985 6.6561 4.95035C7.03142 4.75538 7.50955 4.63208 8.29391 4.56694C9.09025 4.5008 10.1095 4.5 11.55 4.5H16.45C17.8905 4.5 18.9097 4.5008 19.7061 4.56694C20.4905 4.63208 20.9686 4.75538 21.3439 4.95035C22.0745 5.32985 22.6702 5.92553 23.0497 6.6561C23.2446 7.03142 23.3679 7.50955 23.4331 8.29391C23.4992 9.09025 23.5 10.1095 23.5 11.55ZM6.6561 23.0497C6.32137 22.8758 6.01496 22.6565 5.74468 22.3997L9.29746 17.7106L11.3433 20.1842C12.1082 21.109 13.5097 21.1567 14.3356 20.2859L20.0301 14.2824L23.4963 17.8981C23.4903 18.6208 23.4745 19.2072 23.4331 19.7061C23.3679 20.4905 23.2446 20.9686 23.0497 21.3439C22.6702 22.0745 22.0745 22.6702 21.3439 23.0497C20.9686 23.2446 20.4905 23.3679 19.7061 23.4331C18.9097 23.4992 17.8905 23.5 16.45 23.5H11.55C10.1095 23.5 9.09025 23.4992 8.29391 23.4331C7.50955 23.3679 7.03142 23.2446 6.6561 23.0497Z" fill="#A6A7AA"/>
</svg>
