<svg width="28" height="28" viewBox="0 0 28 28" fill="#A6A7AA" xmlns="http://www.w3.org/2000/svg">
<path fill-rule="evenodd" clip-rule="evenodd" d="M5.35177 11.5C5.12273 12.2937 5 13.1325 5 14C5 14.8675 5.12273 15.7063 5.35177 16.5H9.65663C9.5568 15.7233 9.5 14.8902 9.5 14C9.5 13.1098 9.5568 12.2767 9.65663 11.5H5.35177ZM6.20404 9.5H10.0305C10.3837 8.07849 10.8723 6.90543 11.3668 5.97417C11.4988 5.72556 11.6311 5.49445 11.7612 5.28067C9.39189 5.88722 7.39914 7.43403 6.20404 9.5ZM14 5.53019C13.7435 5.87596 13.4393 6.33568 13.1332 6.91219C12.7667 7.60239 12.3956 8.46288 12.1001 9.5H15.8999C15.6044 8.46288 15.2333 7.60239 14.8668 6.91219C14.5607 6.33568 14.2565 5.87596 14 5.53019ZM16.3248 11.5H11.6752C11.5646 12.2649 11.5 13.0977 11.5 14C11.5 14.9023 11.5646 15.7351 11.6752 16.5H16.3248C16.4354 15.7351 16.5 14.9023 16.5 14C16.5 13.0977 16.4354 12.2649 16.3248 11.5ZM18.3434 16.5C18.4432 15.7233 18.5 14.8902 18.5 14C18.5 13.1098 18.4432 12.2767 18.3434 11.5H22.6482C22.8773 12.2937 23 13.1325 23 14C23 14.8675 22.8773 15.7063 22.6482 16.5H18.3434ZM15.8999 18.5H12.1001C12.3956 19.5371 12.7667 20.3976 13.1332 21.0878C13.4393 21.6643 13.7435 22.124 14 22.4698C14.2565 22.124 14.5607 21.6643 14.8668 21.0878C15.2333 20.3976 15.6044 19.5371 15.8999 18.5ZM11.7612 22.7193C11.6311 22.5056 11.4988 22.2744 11.3668 22.0258C10.8723 21.0946 10.3837 19.9215 10.0305 18.5H6.20404C7.39914 20.566 9.39189 22.1128 11.7612 22.7193ZM16.2388 22.7193C16.3689 22.5056 16.5012 22.2744 16.6332 22.0258C17.1277 21.0946 17.6163 19.9215 17.9695 18.5H21.796C20.6009 20.566 18.6081 22.1128 16.2388 22.7193ZM21.796 9.5H17.9695C17.6163 8.07849 17.1277 6.90543 16.6332 5.97417C16.5012 5.72556 16.3689 5.49445 16.2388 5.28067C18.6081 5.88721 20.6009 7.43403 21.796 9.5ZM3 14C3 7.92487 7.92487 3 14 3C20.0751 3 25 7.92487 25 14C25 20.0751 20.0751 25 14 25C7.92487 25 3 20.0751 3 14Z" fill="#A6A7AA"/>
</svg>
