<svg width="28" height="28" viewBox="0 0 28 28" fill="#A6A7AA" xmlns="http://www.w3.org/2000/svg">
<path fill-rule="evenodd" clip-rule="evenodd" d="M13.3333 3.33333C11.6765 3.33333 10.3333 4.67647 10.3333 6.33333V10.5C10.3333 10.5571 10.3285 10.613 10.3194 10.6674C10.5558 10.6667 10.8036 10.6667 11.0631 10.6667H16.9369C17.1964 10.6667 17.4441 10.6667 17.6806 10.6674C17.6714 10.613 17.6667 10.5571 17.6667 10.5V6.33333C17.6667 4.67647 16.3235 3.33333 14.6667 3.33333H13.3333ZM19.641 10.7259C19.6578 10.6533 19.6667 10.5777 19.6667 10.5V6.33333C19.6667 3.57191 17.4281 1.33333 14.6667 1.33333H13.3333C10.5719 1.33333 8.33332 3.5719 8.33332 6.33333V10.5C8.33332 10.5777 8.34218 10.6533 8.35894 10.7259C8.3569 10.726 8.35486 10.7262 8.35282 10.7264C7.612 10.7879 6.96179 10.9179 6.36179 11.2296C5.44857 11.704 4.70397 12.4486 4.22959 13.3618C3.91791 13.9618 3.7879 14.612 3.72638 15.3528C3.66664 16.0722 3.66665 16.9611 3.66666 18.0631V19.2702C3.66665 20.3722 3.66664 21.2611 3.72638 21.9805C3.7879 22.7213 3.91791 23.3715 4.22959 23.9715C4.70397 24.8847 5.44857 25.6294 6.36179 26.1037C6.96179 26.4154 7.612 26.5454 8.35282 26.6069C9.07222 26.6667 9.96109 26.6667 11.0631 26.6667H16.9368C18.0389 26.6667 18.9278 26.6667 19.6472 26.6069C20.388 26.5454 21.0382 26.4154 21.6382 26.1037C22.5514 25.6294 23.296 24.8848 23.7704 23.9715C24.0821 23.3715 24.2121 22.7213 24.2736 21.9805C24.3333 21.2611 24.3333 20.3722 24.3333 19.2702V18.0632C24.3333 16.9611 24.3333 16.0722 24.2736 15.3528C24.2121 14.612 24.0821 13.9618 23.7704 13.3618C23.296 12.4486 22.5514 11.704 21.6382 11.2296C21.0382 10.9179 20.388 10.7879 19.6472 10.7264C19.6451 10.7262 19.6431 10.726 19.641 10.7259ZM8.51834 12.7195C7.90344 12.7706 7.55068 12.8658 7.28373 13.0044C6.7358 13.289 6.28904 13.7358 6.00442 14.2837C5.86575 14.5507 5.77059 14.9034 5.71952 15.5183C5.66746 16.1452 5.66666 16.9509 5.66666 18.1067V19.2267C5.66666 20.3824 5.66746 21.1881 5.71952 21.815C5.77059 22.4299 5.86575 22.7826 6.00442 23.0496C6.28904 23.5975 6.7358 24.0443 7.28373 24.3289C7.55068 24.4676 7.90344 24.5627 8.51834 24.6138C9.14521 24.6659 9.95089 24.6667 11.1067 24.6667H16.8933C18.0491 24.6667 18.8548 24.6659 19.4816 24.6138C20.0965 24.5627 20.4493 24.4676 20.7162 24.3289C21.2642 24.0443 21.7109 23.5975 21.9956 23.0496C22.1342 22.7826 22.2294 22.4299 22.2805 21.815C22.3325 21.1881 22.3333 20.3824 22.3333 19.2267V18.1067C22.3333 16.9509 22.3325 16.1452 22.2805 15.5183C22.2294 14.9034 22.1342 14.5507 21.9956 14.2837C21.7109 13.7358 21.2642 13.289 20.7162 13.0044C20.4493 12.8658 20.0965 12.7706 19.4816 12.7195C18.8548 12.6675 18.0491 12.6667 16.8933 12.6667H11.1067C9.95089 12.6667 9.14521 12.6675 8.51834 12.7195ZM14 16.5C14.5523 16.5 15 16.9477 15 17.5V19.8333C15 20.3856 14.5523 20.8333 14 20.8333C13.4477 20.8333 13 20.3856 13 19.8333V17.5C13 16.9477 13.4477 16.5 14 16.5Z" fill="#A6A7AA"/>
</svg>
