<svg width="28" height="28" viewBox="0 0 28 28" fill="#A6A7AA" xmlns="http://www.w3.org/2000/svg">
<path fill-rule="evenodd" clip-rule="evenodd" d="M8.09789 1.33332C8.12047 1.33333 8.14339 1.33334 8.16665 1.33334H13.3333C19.4084 1.33334 24.3333 6.2582 24.3333 12.3333V14.924C24.3333 14.9757 24.3333 15.0289 24.3333 15.0836C24.3333 15.1109 24.3333 15.1386 24.3333 15.1667V20.908C24.3333 21.713 24.3333 22.3773 24.2891 22.9185C24.2432 23.4806 24.1446 23.9973 23.8973 24.4826C23.5138 25.2353 22.9019 25.8472 22.1493 26.2307C21.6639 26.478 21.1472 26.5766 20.5851 26.6225C20.044 26.6667 19.3796 26.6667 18.5746 26.6667H9.42532C8.62037 26.6667 7.95601 26.6667 7.41482 26.6225C6.85273 26.5766 6.33602 26.478 5.85069 26.2307C5.09804 25.8472 4.48612 25.2353 4.10262 24.4826C3.85533 23.9973 3.75677 23.4806 3.71084 22.9185C3.66663 22.3773 3.66664 21.7129 3.66665 20.908L3.66665 5.83334C3.66665 5.81008 3.66664 5.78716 3.66664 5.76458C3.66653 5.36714 3.66645 5.07269 3.70087 4.81123C3.93718 3.0163 5.34961 1.60387 7.14455 1.36756C7.406 1.33314 7.70045 1.33322 8.09789 1.33332ZM22.3333 15.1667C22.3333 14.3609 22.3312 14.0548 22.2991 13.8112C22.0628 12.0163 20.6504 10.6039 18.8554 10.3676C18.6119 10.3355 18.3058 10.3333 17.5 10.3333H16.625C14.623 10.3333 13 8.71037 13 6.70834C13 4.84438 11.4889 3.33334 9.62498 3.33334H8.16665C7.67044 3.33334 7.51918 3.33549 7.4056 3.35045C6.50813 3.4686 5.80191 4.17482 5.68376 5.07228C5.66881 5.18587 5.66665 5.33713 5.66665 5.83334V20.8667C5.66665 21.7233 5.66743 22.3055 5.7042 22.7556C5.74002 23.194 5.80495 23.4183 5.88464 23.5747C6.07638 23.951 6.38235 24.2569 6.75867 24.4487C6.91507 24.5284 7.13927 24.5933 7.57769 24.6291C8.02778 24.6659 8.61007 24.6667 9.46665 24.6667H18.5333C19.3899 24.6667 19.9722 24.6659 20.4223 24.6291C20.8607 24.5933 21.0849 24.5284 21.2413 24.4487C21.6176 24.2569 21.9236 23.951 22.1153 23.5747C22.195 23.4183 22.2599 23.194 22.2958 22.7556C22.3325 22.3055 22.3333 21.7233 22.3333 20.8667V15.1667ZM13.8189 3.34621C14.5579 4.26683 15 5.43596 15 6.70834C15 7.6058 15.7275 8.33334 16.625 8.33334H17.5C17.5281 8.33334 17.5557 8.33333 17.583 8.33333C18.2775 8.33325 18.7256 8.3332 19.1165 8.38467C20.1409 8.51953 21.0822 8.90978 21.8749 9.48984C20.7334 6.05928 17.583 3.54633 13.8189 3.34621Z" fill="#A6A7AA"/>
</svg>
