<svg width="28" height="28" viewBox="0 0 28 28" fill="#A6A7AA" xmlns="http://www.w3.org/2000/svg">
<path fill-rule="evenodd" clip-rule="evenodd" d="M12.8333 5.66667C8.87528 5.66667 5.66666 8.8753 5.66666 12.8333C5.66666 16.7914 8.87528 20 12.8333 20C16.7914 20 20 16.7914 20 12.8333C20 8.8753 16.7914 5.66667 12.8333 5.66667ZM3.66666 12.8333C3.66666 7.77073 7.77071 3.66667 12.8333 3.66667C17.8959 3.66667 22 7.77073 22 12.8333C22 15.0044 21.2452 16.9992 19.9838 18.5696L24.0404 22.6262C24.431 23.0168 24.431 23.6499 24.0404 24.0404C23.6499 24.431 23.0167 24.431 22.6262 24.0404L18.5696 19.9838C16.9992 21.2452 15.0044 22 12.8333 22C7.77071 22 3.66666 17.8959 3.66666 12.8333Z" fill="#A6A7AA"/>
</svg>
