<svg width="28" height="28" viewBox="0 0 28 28" fill="#A6A7AA" xmlns="http://www.w3.org/2000/svg">
<path fill-rule="evenodd" clip-rule="evenodd" d="M22.4938 2.73516L4.39755 7.25923C2.29857 7.78398 2.03654 10.661 4.0062 11.5563L9.58174 14.0906C10.8052 14.6468 12.1423 14.8033 13.4179 14.5822C13.1967 15.8577 13.3533 17.1948 13.9094 18.4183L16.4437 23.9938C17.339 25.9635 20.216 25.7014 20.7408 23.6025L25.2648 5.50619C25.6832 3.83266 24.1673 2.31678 22.4938 2.73516ZM4.88262 9.19951C4.62079 9.26497 4.5881 9.62386 4.83381 9.73554L10.4093 12.2699C11.6774 12.8463 13.1209 12.8053 14.3368 12.197C14.5653 12.0827 14.7858 11.9484 14.9956 11.7943C15.0463 11.7571 15.0963 11.7188 15.1456 11.6793L17.8159 9.54305C18.2409 9.20305 18.797 9.75909 18.4569 10.1841L16.3207 12.8544C16.2812 12.9037 16.2429 12.9537 16.2057 13.0044C16.0517 13.2142 15.9173 13.4347 15.803 13.6632C15.1947 14.8791 15.1537 16.3226 15.7301 17.5907L18.2645 23.1662C18.3761 23.4119 18.735 23.3792 18.8005 23.1174L23.3246 5.02111C23.3768 4.81235 23.1877 4.62326 22.9789 4.67545L4.88262 9.19951Z" fill="#A6A7AA"/>
</svg>
