<svg width="28" height="28" viewBox="0 0 28 28" fill="#A6A7AA" xmlns="http://www.w3.org/2000/svg">
<path fill-rule="evenodd" clip-rule="evenodd" d="M5.8783 2.5C5.8905 2.5 5.90273 2.5 5.915 2.5L9.28838 2.5C9.68401 2.49998 10.04 2.49996 10.3361 2.52454C10.6532 2.55088 10.99 2.61052 11.3191 2.78147C11.7757 3.01866 12.148 3.39096 12.3852 3.84757C12.5561 4.17665 12.6158 4.51343 12.6421 4.83059C12.6667 5.12664 12.6667 5.48265 12.6667 5.87828V9.28839C12.6667 9.68402 12.6667 10.04 12.6421 10.3361C12.6158 10.6532 12.5561 10.99 12.3852 11.3191C12.148 11.7757 11.7757 12.148 11.3191 12.3852C10.99 12.5561 10.6532 12.6158 10.3361 12.6421C10.04 12.6667 9.68402 12.6667 9.28839 12.6667H5.87828C5.48265 12.6667 5.12664 12.6667 4.83059 12.6421C4.51343 12.6158 4.17665 12.5561 3.84757 12.3852C3.39096 12.148 3.01866 11.7757 2.78147 11.3191C2.61052 10.99 2.55088 10.6532 2.52454 10.3361C2.49996 10.04 2.49998 9.68401 2.5 9.28837L2.5 5.915C2.5 5.90273 2.5 5.89049 2.5 5.8783C2.49998 5.48266 2.49996 5.12664 2.52454 4.83059C2.55088 4.51343 2.61052 4.17665 2.78147 3.84757C3.01866 3.39096 3.39096 3.01866 3.84757 2.78147C4.17665 2.61052 4.51343 2.55088 4.83059 2.52454C5.12664 2.49996 5.48266 2.49998 5.8783 2.5ZM4.77752 4.55297C4.77226 4.55488 4.77001 4.55604 4.76952 4.5563C4.67819 4.60373 4.60373 4.67819 4.5563 4.76952C4.55604 4.77001 4.55488 4.77226 4.55297 4.77752C4.55098 4.78299 4.54767 4.79312 4.54372 4.80961C4.53541 4.84427 4.52554 4.90145 4.51768 4.99611C4.50081 5.19932 4.5 5.4711 4.5 5.915V9.25167C4.5 9.69557 4.50081 9.96735 4.51768 10.1706C4.52554 10.2652 4.53541 10.3224 4.54372 10.3571C4.54767 10.3735 4.55098 10.3837 4.55297 10.3892C4.55488 10.3944 4.55604 10.3967 4.5563 10.3972C4.60373 10.4885 4.67819 10.5629 4.76952 10.6104C4.77001 10.6106 4.77226 10.6118 4.77752 10.6137C4.78299 10.6157 4.79312 10.619 4.80961 10.623C4.84427 10.6313 4.90145 10.6411 4.99611 10.649C5.19932 10.6659 5.4711 10.6667 5.915 10.6667H9.25167C9.69557 10.6667 9.96735 10.6659 10.1706 10.649C10.2652 10.6411 10.3224 10.6313 10.3571 10.623C10.3735 10.619 10.3837 10.6157 10.3892 10.6137C10.3944 10.6118 10.3967 10.6106 10.3972 10.6104C10.4885 10.5629 10.5629 10.4885 10.6104 10.3972C10.6106 10.3967 10.6118 10.3944 10.6137 10.3892C10.6157 10.3837 10.619 10.3735 10.623 10.3571C10.6313 10.3224 10.6411 10.2652 10.649 10.1706C10.6659 9.96735 10.6667 9.69557 10.6667 9.25167V5.915C10.6667 5.4711 10.6659 5.19932 10.649 4.99611C10.6411 4.90145 10.6313 4.84427 10.623 4.80961C10.619 4.79312 10.6157 4.78299 10.6137 4.77752C10.6118 4.77226 10.6106 4.77001 10.6104 4.76952C10.5629 4.67819 10.4885 4.60373 10.3972 4.5563C10.3967 4.55604 10.3944 4.55488 10.3892 4.55297C10.3837 4.55098 10.3735 4.54767 10.3571 4.54372C10.3224 4.53541 10.2652 4.52554 10.1706 4.51768C9.96735 4.50081 9.69557 4.5 9.25167 4.5H5.915C5.4711 4.5 5.19932 4.50081 4.99611 4.51768C4.90145 4.52554 4.84427 4.53541 4.80961 4.54372C4.79312 4.54767 4.78299 4.55098 4.77752 4.55297ZM18.7116 2.5H22.1217C22.5173 2.49998 22.8734 2.49996 23.1694 2.52454C23.4866 2.55088 23.8234 2.61052 24.1524 2.78147C24.609 3.01866 24.9813 3.39096 25.2185 3.84757C25.3895 4.17665 25.4491 4.51344 25.4755 4.83059C25.5 5.12665 25.5 5.48268 25.5 5.87832V9.28835C25.5 9.684 25.5 10.04 25.4755 10.3361C25.4491 10.6532 25.3895 10.99 25.2185 11.3191C24.9813 11.7757 24.609 12.148 24.1524 12.3852C23.8234 12.5561 23.4866 12.6158 23.1694 12.6421C22.8734 12.6667 22.5174 12.6667 22.1217 12.6667H18.7116C18.316 12.6667 17.96 12.6667 17.6639 12.6421C17.3468 12.6158 17.01 12.5561 16.6809 12.3852C16.2243 12.148 15.852 11.7757 15.6148 11.3191C15.4439 10.99 15.3842 10.6532 15.3579 10.3361C15.3333 10.04 15.3333 9.68402 15.3333 9.28839V5.87828C15.3333 5.48265 15.3333 5.12664 15.3579 4.83059C15.3842 4.51343 15.4439 4.17665 15.6148 3.84757C15.852 3.39096 16.2243 3.01866 16.6809 2.78147C17.01 2.61052 17.3468 2.55088 17.6639 2.52454C17.96 2.49996 18.316 2.49998 18.7116 2.5ZM17.6108 4.55297C17.6056 4.55488 17.6033 4.55604 17.6028 4.5563C17.5115 4.60373 17.4371 4.67819 17.3896 4.76952C17.3894 4.77001 17.3882 4.77226 17.3863 4.77752C17.3843 4.78299 17.381 4.79312 17.3771 4.80961C17.3687 4.84427 17.3589 4.90145 17.351 4.99611C17.3341 5.19932 17.3333 5.4711 17.3333 5.915V9.25167C17.3333 9.69557 17.3341 9.96735 17.351 10.1706C17.3589 10.2652 17.3687 10.3224 17.3771 10.3571C17.381 10.3736 17.3843 10.3837 17.3863 10.3892C17.3882 10.3944 17.3894 10.3967 17.3896 10.3972C17.4371 10.4885 17.5115 10.5629 17.6028 10.6104C17.6033 10.6106 17.6056 10.6118 17.6108 10.6137C17.6163 10.6157 17.6265 10.619 17.6429 10.623C17.6776 10.6313 17.7348 10.6411 17.8294 10.649C18.0327 10.6659 18.3044 10.6667 18.7483 10.6667H22.085C22.5289 10.6667 22.8007 10.6659 23.0039 10.649C23.0986 10.6411 23.1557 10.6313 23.1904 10.623C23.2069 10.619 23.217 10.6157 23.2225 10.6137C23.2277 10.6118 23.23 10.6106 23.2305 10.6104C23.3218 10.5629 23.3963 10.4885 23.4437 10.3972C23.444 10.3967 23.4451 10.3944 23.447 10.3892C23.449 10.3837 23.4523 10.3736 23.4563 10.3571C23.4646 10.3224 23.4745 10.2652 23.4823 10.1706C23.4992 9.96735 23.5 9.69557 23.5 9.25167V5.915C23.5 5.4711 23.4992 5.19932 23.4823 4.99611C23.4745 4.90145 23.4646 4.84427 23.4563 4.80961C23.4523 4.79312 23.449 4.78299 23.447 4.77751C23.4451 4.77226 23.444 4.77001 23.4437 4.76952C23.3963 4.67819 23.3218 4.60373 23.2305 4.5563C23.23 4.55604 23.2277 4.55488 23.2225 4.55297C23.217 4.55098 23.2069 4.54767 23.1904 4.54372C23.1557 4.53541 23.0986 4.52554 23.0039 4.51768C22.8007 4.50081 22.5289 4.5 22.085 4.5H18.7483C18.3044 4.5 18.0327 4.50081 17.8294 4.51768C17.7348 4.52554 17.6776 4.53541 17.6429 4.54372C17.6265 4.54767 17.6163 4.55098 17.6108 4.55297ZM5.87828 15.3333H9.28839C9.68402 15.3333 10.04 15.3333 10.3361 15.3579C10.6532 15.3842 10.99 15.4439 11.3191 15.6148C11.7757 15.852 12.148 16.2243 12.3852 16.6809C12.5561 17.01 12.6158 17.3468 12.6421 17.6639C12.6667 17.96 12.6667 18.316 12.6667 18.7116V22.1217C12.6667 22.5174 12.6667 22.8734 12.6421 23.1694C12.6158 23.4866 12.5561 23.8234 12.3852 24.1524C12.148 24.609 11.7757 24.9813 11.3191 25.2185C10.99 25.3895 10.6532 25.4491 10.3361 25.4755C10.04 25.5 9.684 25.5 9.28835 25.5H5.87832C5.48268 25.5 5.12665 25.5 4.83059 25.4755C4.51344 25.4491 4.17665 25.3895 3.84757 25.2185C3.39096 24.9813 3.01866 24.609 2.78147 24.1524C2.61052 23.8234 2.55088 23.4866 2.52454 23.1694C2.49996 22.8734 2.49998 22.5173 2.5 22.1217V18.7116C2.49998 18.316 2.49996 17.96 2.52454 17.6639C2.55088 17.3468 2.61052 17.01 2.78147 16.6809C3.01866 16.2243 3.39096 15.852 3.84757 15.6148C4.17665 15.4439 4.51344 15.3842 4.83059 15.3579C5.12664 15.3333 5.48265 15.3333 5.87828 15.3333ZM4.77752 17.3863C4.77226 17.3882 4.77001 17.3894 4.76952 17.3896C4.67819 17.4371 4.60373 17.5115 4.5563 17.6028C4.55604 17.6033 4.55488 17.6056 4.55297 17.6108C4.55098 17.6163 4.54767 17.6265 4.54372 17.6429C4.53541 17.6776 4.52554 17.7348 4.51768 17.8294C4.50081 18.0327 4.5 18.3044 4.5 18.7483V22.085C4.5 22.5289 4.50081 22.8007 4.51768 23.0039C4.52554 23.0986 4.53541 23.1557 4.54372 23.1904C4.54767 23.2069 4.55098 23.217 4.55297 23.2225C4.55488 23.2277 4.55604 23.23 4.5563 23.2305C4.60373 23.3218 4.67819 23.3963 4.76952 23.4437C4.77001 23.444 4.77226 23.4451 4.77751 23.447C4.78299 23.449 4.79312 23.4523 4.80961 23.4563C4.84427 23.4646 4.90145 23.4745 4.99611 23.4823C5.19932 23.4992 5.4711 23.5 5.915 23.5H9.25167C9.69557 23.5 9.96735 23.4992 10.1706 23.4823C10.2652 23.4745 10.3224 23.4646 10.3571 23.4563C10.3736 23.4523 10.3837 23.449 10.3892 23.447C10.3944 23.4451 10.3967 23.444 10.3972 23.4437C10.4885 23.3963 10.5629 23.3218 10.6104 23.2305C10.6106 23.23 10.6118 23.2277 10.6137 23.2225C10.6157 23.217 10.619 23.2069 10.623 23.1904C10.6313 23.1557 10.6411 23.0986 10.649 23.0039C10.6659 22.8007 10.6667 22.5289 10.6667 22.085V18.7483C10.6667 18.3044 10.6659 18.0327 10.649 17.8294C10.6411 17.7348 10.6313 17.6776 10.623 17.6429C10.619 17.6265 10.6157 17.6163 10.6137 17.6108C10.6118 17.6056 10.6106 17.6033 10.6104 17.6028C10.5629 17.5115 10.4885 17.4371 10.3972 17.3896C10.3967 17.3894 10.3944 17.3882 10.3892 17.3863C10.3837 17.3843 10.3736 17.381 10.3571 17.3771C10.3224 17.3687 10.2652 17.3589 10.1706 17.351C9.96735 17.3341 9.69557 17.3333 9.25167 17.3333H5.915C5.4711 17.3333 5.19932 17.3341 4.99611 17.351C4.90145 17.3589 4.84427 17.3687 4.80961 17.3771C4.79312 17.381 4.78299 17.3843 4.77752 17.3863ZM18.7116 15.3333H22.1217C22.5174 15.3333 22.8734 15.3333 23.1694 15.3579C23.4866 15.3842 23.8234 15.4439 24.1524 15.6148C24.609 15.852 24.9813 16.2243 25.2185 16.6809C25.3895 17.01 25.4491 17.3468 25.4755 17.6639C25.5 17.96 25.5 18.316 25.5 18.7117V22.1217C25.5 22.5173 25.5 22.8734 25.4755 23.1694C25.4491 23.4866 25.3895 23.8234 25.2185 24.1524C24.9813 24.609 24.609 24.9813 24.1524 25.2185C23.8234 25.3895 23.4866 25.4491 23.1694 25.4755C22.8734 25.5 22.5173 25.5 22.1217 25.5H18.7117C18.316 25.5 17.96 25.5 17.6639 25.4755C17.3468 25.4491 17.01 25.3895 16.6809 25.2185C16.2243 24.9813 15.852 24.609 15.6148 24.1524C15.4439 23.8234 15.3842 23.4866 15.3579 23.1694C15.3333 22.8734 15.3333 22.5174 15.3333 22.1217V18.7116C15.3333 18.316 15.3333 17.96 15.3579 17.6639C15.3842 17.3468 15.4439 17.01 15.6148 16.6809C15.852 16.2243 16.2243 15.852 16.6809 15.6148C17.01 15.4439 17.3468 15.3842 17.6639 15.3579C17.96 15.3333 18.316 15.3333 18.7116 15.3333ZM17.6108 17.3863C17.6056 17.3882 17.6033 17.3894 17.6028 17.3896C17.5115 17.4371 17.4371 17.5115 17.3896 17.6028C17.3894 17.6033 17.3882 17.6056 17.3863 17.6108C17.3843 17.6163 17.381 17.6265 17.3771 17.6429C17.3687 17.6776 17.3589 17.7348 17.351 17.8294C17.3341 18.0327 17.3333 18.3044 17.3333 18.7483V22.085C17.3333 22.5289 17.3341 22.8007 17.351 23.0039C17.3589 23.0986 17.3687 23.1557 17.3771 23.1904C17.381 23.2069 17.3843 23.217 17.3863 23.2225C17.3882 23.2277 17.3894 23.23 17.3896 23.2305C17.4371 23.3218 17.5115 23.3963 17.6028 23.4437C17.6031 23.4439 17.6041 23.4443 17.6059 23.4451C17.6071 23.4456 17.6087 23.4463 17.6108 23.447C17.6163 23.449 17.6265 23.4523 17.6429 23.4563C17.6776 23.4646 17.7348 23.4745 17.8294 23.4823C18.0327 23.4992 18.3044 23.5 18.7483 23.5H22.085C22.5289 23.5 22.8007 23.4992 23.0039 23.4823C23.0986 23.4745 23.1557 23.4646 23.1904 23.4563C23.2069 23.4523 23.217 23.449 23.2225 23.447C23.2277 23.4451 23.23 23.444 23.2305 23.4437C23.3218 23.3963 23.3963 23.3218 23.4437 23.2305C23.444 23.23 23.4451 23.2277 23.447 23.2225C23.449 23.217 23.4523 23.2069 23.4563 23.1904C23.4646 23.1557 23.4745 23.0986 23.4823 23.0039C23.4992 22.8007 23.5 22.5289 23.5 22.085V18.7483C23.5 18.3044 23.4992 18.0327 23.4823 17.8294C23.4745 17.7348 23.4646 17.6776 23.4563 17.6429C23.4523 17.6265 23.449 17.6163 23.447 17.6108C23.4455 17.6066 23.4445 17.6043 23.444 17.6034C23.4438 17.6031 23.444 17.6034 23.444 17.6034C23.3965 17.512 23.3218 17.4371 23.2305 17.3896C23.23 17.3894 23.2277 17.3882 23.2225 17.3863C23.217 17.3843 23.2069 17.381 23.1904 17.3771C23.1557 17.3687 23.0986 17.3589 23.0039 17.351C22.8007 17.3341 22.5289 17.3333 22.085 17.3333H18.7483C18.3044 17.3333 18.0327 17.3341 17.8294 17.351C17.7348 17.3589 17.6776 17.3687 17.6429 17.3771C17.6265 17.381 17.6163 17.3843 17.6108 17.3863Z" fill="#A6A7AA"/>
</svg>
