<svg width="28" height="28" viewBox="0 0 28 28" fill="#A6A7AA" xmlns="http://www.w3.org/2000/svg">
<path d="M7 4.5C5.61929 4.5 4.5 5.61929 4.5 7V8.16667C4.5 8.71895 4.05228 9.16667 3.5 9.16667C2.94772 9.16667 2.5 8.71895 2.5 8.16667V7C2.5 4.51472 4.51472 2.5 7 2.5H8.16667C8.71895 2.5 9.16667 2.94772 9.16667 3.5C9.16667 4.05228 8.71895 4.5 8.16667 4.5H7Z" fill="#A6A7AA"/>
<path fill-rule="evenodd" clip-rule="evenodd" d="M12.7922 7.16666C12.0105 7.16664 11.3636 7.16663 10.8363 7.20971C10.2881 7.2545 9.78165 7.3508 9.30522 7.59355C8.56826 7.96905 7.96908 8.56823 7.59358 9.30519C7.35083 9.78162 7.25454 10.288 7.20975 10.8362C7.1857 11.1305 7.17508 11.462 7.17039 11.8333H4.66669C4.1144 11.8333 3.66669 12.2811 3.66669 12.8333C3.66669 13.3856 4.1144 13.8333 4.66669 13.8333H23.3334C23.8856 13.8333 24.3334 13.3856 24.3334 12.8333C24.3334 12.2811 23.8856 11.8333 23.3334 11.8333H20.8296C20.8249 11.462 20.8143 11.1305 20.7903 10.8362C20.7455 10.288 20.6492 9.78162 20.4064 9.30519C20.0309 8.56823 19.4318 7.96905 18.6948 7.59355C18.2184 7.3508 17.712 7.2545 17.1638 7.20971C16.6365 7.16663 15.9896 7.16664 15.2078 7.16666H12.7922ZM18.8294 11.8333C18.8251 11.5039 18.816 11.233 18.7969 10.9991C18.7622 10.5746 18.6996 10.3607 18.6244 10.2132C18.4407 9.85253 18.1475 9.55932 17.7868 9.37556C17.6393 9.30041 17.4254 9.23776 17.0009 9.20307C16.5647 9.16743 15.9999 9.16666 15.1667 9.16666H12.8334C12.0001 9.16666 11.4353 9.16743 10.9991 9.20307C10.5746 9.23776 10.3607 9.30041 10.2132 9.37556C9.85256 9.55932 9.55935 9.85253 9.37559 10.2132C9.30044 10.3607 9.23779 10.5746 9.2031 10.9991C9.18399 11.233 9.17491 11.5039 9.17059 11.8333H18.8294Z" fill="#A6A7AA"/>
<path d="M16.4848 20.8334L12.7922 20.8333C12.0105 20.8334 11.3635 20.8334 10.8362 20.7903C10.288 20.7455 9.78163 20.6492 9.3052 20.4065C8.56824 20.0309 7.96906 19.4318 7.59356 18.6948C7.54902 18.6074 7.52342 18.5634 7.49229 18.5099C7.47398 18.4785 7.45376 18.4438 7.42665 18.395C7.35191 18.2604 7.27364 18.0961 7.2266 17.8656C7.18767 17.6749 7.17704 17.4697 7.17192 17.2568C7.16667 17.0381 7.16667 16.7439 7.16667 16.3494V16.3333C7.16667 15.7811 7.61438 15.3333 8.16667 15.3333C8.71895 15.3333 9.16667 15.7811 9.16667 16.3333C9.16667 16.7475 9.16674 17.0171 9.17134 17.2087C9.17361 17.3029 9.17674 17.3665 9.18028 17.4109C9.1811 17.4212 9.1819 17.4299 9.18263 17.4371L9.19273 17.4546C9.22816 17.5157 9.30447 17.6473 9.37557 17.7868C9.55933 18.1475 9.85254 18.4407 10.2132 18.6244C10.3607 18.6996 10.5746 18.7622 10.9991 18.7969C11.4353 18.8326 12.0001 18.8333 12.8333 18.8333H16.3333C17.3418 18.8333 17.6089 18.821 17.7968 18.7599C18.2535 18.6116 18.6115 18.2535 18.7599 17.7969C18.821 17.6089 18.8333 17.3418 18.8333 16.3333C18.8333 15.7811 19.281 15.3333 19.8333 15.3333C20.3856 15.3333 20.8333 15.7811 20.8333 16.3333L20.8334 16.4848C20.8341 17.2654 20.8346 17.8836 20.662 18.4149C20.3158 19.4804 19.4804 20.3158 18.4149 20.662C17.8836 20.8347 17.2654 20.8341 16.4848 20.8334Z" fill="#A6A7AA"/>
<path d="M25.5 19.8333C25.5 19.2811 25.0523 18.8333 24.5 18.8333C23.9477 18.8333 23.5 19.2811 23.5 19.8333V20.4167C23.5 22.1196 22.1195 23.5 20.4166 23.5H19.8333C19.281 23.5 18.8333 23.9477 18.8333 24.5C18.8333 25.0523 19.281 25.5 19.8333 25.5H20.4166C23.2241 25.5 25.5 23.2241 25.5 20.4167V19.8333Z" fill="#A6A7AA"/>
<path d="M18.8333 3.5C18.8333 2.94772 19.281 2.5 19.8333 2.5H20.4166C23.2241 2.5 25.5 4.77589 25.5 7.58333V8.16667C25.5 8.71895 25.0523 9.16667 24.5 9.16667C23.9477 9.16667 23.5 8.71895 23.5 8.16667V7.58333C23.5 5.88046 22.1195 4.5 20.4166 4.5H19.8333C19.281 4.5 18.8333 4.05228 18.8333 3.5Z" fill="#A6A7AA"/>
<path d="M4.5 19.8333C4.5 19.2811 4.05228 18.8333 3.5 18.8333C2.94772 18.8333 2.5 19.2811 2.5 19.8333V20.4167C2.5 23.2241 4.77589 25.5 7.58333 25.5H8.16667C8.71895 25.5 9.16667 25.0523 9.16667 24.5C9.16667 23.9477 8.71895 23.5 8.16667 23.5H7.58333C5.88046 23.5 4.5 22.1196 4.5 20.4167V19.8333Z" fill="#A6A7AA"/>
</svg>
