<svg width="28" height="28" viewBox="0 0 28 28" fill="#A6A7AA" xmlns="http://www.w3.org/2000/svg">
<path d="M9.33337 10.5C9.9777 10.5 10.5 9.97765 10.5 9.33332C10.5 8.68899 9.9777 8.16665 9.33337 8.16665C8.68903 8.16665 8.1667 8.68899 8.1667 9.33332C8.1667 9.97765 8.68903 10.5 9.33337 10.5Z" fill="#A6A7AA"/>
<path fill-rule="evenodd" clip-rule="evenodd" d="M14.1599 2.56553C13.5837 2.45701 12.9897 2.50296 12.1699 2.56637L8.76652 2.8282C7.95695 2.89046 7.29264 2.94156 6.75113 3.02559C6.1883 3.11294 5.68428 3.2455 5.2124 3.50885C4.4976 3.90778 3.90779 4.49758 3.50887 5.21239C3.24551 5.68427 3.11295 6.18828 3.02561 6.75111C2.94157 7.29262 2.89048 7.95693 2.82822 8.7665L2.56638 12.1699C2.50297 12.9897 2.45702 13.5837 2.56555 14.1598C2.65736 14.6472 2.83065 15.1157 3.07814 15.5455C3.37068 16.0536 3.79217 16.4747 4.37383 17.0558L10.211 22.893C10.8133 23.4953 11.3049 23.9869 11.7354 24.3568C12.1805 24.7392 12.6204 25.0458 13.1367 25.2338C14.112 25.5887 15.1812 25.5887 16.1565 25.2338C16.6728 25.0458 17.1128 24.7392 17.5578 24.3568C17.9884 23.9869 18.48 23.4953 19.0822 22.8931L22.893 19.0822C23.4953 18.48 23.9869 17.9884 24.3568 17.5578C24.7392 17.1128 25.0459 16.6728 25.2338 16.1565C25.5888 15.1812 25.5888 14.112 25.2338 13.1367C25.0459 12.6204 24.7392 12.1804 24.3568 11.7354C23.9869 11.3049 23.4953 10.8133 22.8931 10.2111L17.0559 4.37381C16.4747 3.79215 16.0536 3.37067 15.5455 3.07812C15.1157 2.83064 14.6473 2.65735 14.1599 2.56553ZM12.2022 4.56982C13.1931 4.49361 13.5062 4.47758 13.7896 4.53097C14.0562 4.58119 14.3124 4.67597 14.5475 4.81133C14.7975 4.95524 15.0248 5.17121 15.7275 5.87389L21.4514 11.5978C22.0877 12.2341 22.5251 12.6725 22.8399 13.0388C23.1478 13.3972 23.2834 13.6257 23.3544 13.8208C23.5486 14.3542 23.5486 14.939 23.3544 15.4725C23.2834 15.6675 23.1478 15.896 22.8399 16.2544C22.5251 16.6207 22.0877 17.0591 21.4514 17.6954L17.6955 21.4514C17.0591 22.0877 16.6207 22.5251 16.2544 22.8399C15.896 23.1478 15.6675 23.2834 15.4725 23.3544C14.939 23.5485 14.3542 23.5485 13.8208 23.3544C13.6257 23.2834 13.3972 23.1478 13.0388 22.8399C12.6725 22.5251 12.2342 22.0877 11.5978 21.4514L5.8739 15.7275C5.17122 15.0248 4.95526 14.7974 4.81135 14.5475C4.67598 14.3124 4.5812 14.0562 4.53098 13.7896C4.4776 13.5062 4.49362 13.193 4.56984 12.2022L4.81934 8.95871C4.88533 8.10081 4.93118 7.51388 5.00195 7.05782C5.07076 6.61443 5.15329 6.36984 5.2553 6.18705C5.4735 5.79608 5.7961 5.47348 6.18707 5.25528C6.36986 5.15327 6.61445 5.07074 7.05783 5.00194C7.5139 4.93116 8.10083 4.88532 8.95873 4.81932L12.2022 4.56982Z" fill="#A6A7AA"/>
</svg>
